<?xml version="1.0" standalone="no"?>
<!DOCTYPE svg PUBLIC "-//W3C//DTD SVG 20010904//EN"
 "http://www.w3.org/TR/2001/REC-SVG-20010904/DTD/svg10.dtd">
<svg version="1.0" xmlns="http://www.w3.org/2000/svg"
 width="16.000000pt" height="16.000000pt" viewBox="0 0 16.000000 16.000000"
 preserveAspectRatio="xMidYMid meet">
<metadata>
Created by potrace 1.11, written by Peter Selinger 2001-2013
</metadata>
<g transform="translate(0.000000,16.000000) scale(0.006154,-0.006154)"
fill="#000000" stroke="none">
<path d="M1490 2537 c-19 -7 -120 -74 -225 -148 -104 -74 -201 -142 -215 -151
-37 -25 -228 -162 -275 -196 -22 -16 -119 -84 -215 -152 -244 -172 -302 -215
-327 -242 -29 -32 -55 -125 -47 -174 8 -53 23 -79 131 -234 52 -74 151 -216
219 -315 69 -99 132 -189 140 -200 18 -25 207 -298 266 -383 121 -176 147
-202 231 -224 62 -16 122 -1 197 51 109 74 1096 775 1132 803 74 58 107 135
94 221 -7 48 -40 102 -195 322 -96 137 -164 236 -225 325 -28 41 -55 80 -61
87 -5 6 -82 116 -170 244 -197 286 -230 327 -279 352 -48 25 -129 32 -176 14z"/>
<path d="M405 1929 c-16 -5 -82 -23 -144 -40 -161 -43 -199 -66 -238 -148 -28
-56 -25 -130 11 -261 14 -52 52 -201 86 -330 33 -129 80 -311 105 -405 24 -93
64 -251 90 -350 65 -256 75 -276 150 -321 66 -38 122 -40 240 -9 55 14 133 35
174 46 41 10 76 20 78 22 1 2 -85 129 -192 283 -106 153 -211 304 -232 334
-21 30 -132 189 -247 354 -114 165 -215 318 -222 339 -21 60 -17 125 11 182
33 70 41 77 213 198 126 91 168 122 150 116 -2 0 -16 -5 -33 -10z"/>
<path d="M2130 581 c-19 -15 -73 -54 -120 -86 -47 -32 -86 -62 -88 -66 -2 -5
-8 -9 -14 -9 -11 0 -80 -51 -75 -56 2 -2 49 9 105 25 126 35 173 66 208 137
35 72 30 91 -16 55z"/>
</g>
</svg>
